<?xml version="1.0" encoding="UTF-8" standalone="no"?>
<svg
   xmlns:dc="http://purl.org/dc/elements/1.1/"
   xmlns:cc="http://creativecommons.org/ns#"
   xmlns:rdf="http://www.w3.org/1999/02/22-rdf-syntax-ns#"
   xmlns:svg="http://www.w3.org/2000/svg"
   xmlns="http://www.w3.org/2000/svg"
   xmlns:sodipodi="http://sodipodi.sourceforge.net/DTD/sodipodi-0.dtd"
   xmlns:inkscape="http://www.inkscape.org/namespaces/inkscape"
   id="svg2"
   xml:space="preserve"
   enable-background="new 0 0 256 256"
   viewBox="0 0 256 256"
   height="256px"
   width="256px"
   y="0px"
   x="0px"
   version="1.1"
   inkscape:version="0.91 r13725"
   sodipodi:docname="texmaker.svg"><title
     id="title4153">Texmaker icon</title><sodipodi:namedview
     pagecolor="#ffffff"
     bordercolor="#666666"
     borderopacity="1"
     objecttolerance="10"
     gridtolerance="10"
     guidetolerance="10"
     inkscape:pageopacity="0"
     inkscape:pageshadow="2"
     inkscape:window-width="1366"
     inkscape:window-height="708"
     id="namedview26"
     showgrid="false"
     inkscape:zoom="1.3037282"
     inkscape:cx="19.932137"
     inkscape:cy="65.657917"
     inkscape:window-x="0"
     inkscape:window-y="0"
     inkscape:window-maximized="1"
     inkscape:current-layer="Layer_3" /><metadata
     id="metadata42"><rdf:RDF><cc:Work
         rdf:about=""><dc:format>image/svg+xml</dc:format><dc:type
           rdf:resource="http://purl.org/dc/dcmitype/StillImage" /><dc:title>Texmaker icon</dc:title><dc:date>29/08/15</dc:date><dc:creator><cc:Agent><dc:title>gustawho</dc:title></cc:Agent></dc:creator><dc:rights><cc:Agent><dc:title>CC-BY-SA</dc:title></cc:Agent></dc:rights><dc:publisher><cc:Agent><dc:title>Inkscape</dc:title></cc:Agent></dc:publisher><dc:subject><rdf:Bag><rdf:li>breeze</rdf:li><rdf:li>kde</rdf:li><rdf:li>plasma</rdf:li><rdf:li>latex</rdf:li><rdf:li>texmaker</rdf:li></rdf:Bag></dc:subject><dc:description>https://github.com/gustawho/texmaker-breeze</dc:description><cc:license
           rdf:resource="http://creativecommons.org/licenses/by-sa/3.0/" /></cc:Work><cc:License
         rdf:about="http://creativecommons.org/licenses/by-sa/3.0/"><cc:permits
           rdf:resource="http://creativecommons.org/ns#Reproduction" /><cc:permits
           rdf:resource="http://creativecommons.org/ns#Distribution" /><cc:requires
           rdf:resource="http://creativecommons.org/ns#Notice" /><cc:requires
           rdf:resource="http://creativecommons.org/ns#Attribution" /><cc:permits
           rdf:resource="http://creativecommons.org/ns#DerivativeWorks" /><cc:requires
           rdf:resource="http://creativecommons.org/ns#ShareAlike" /></cc:License></rdf:RDF></metadata><defs
     id="defs40" /><symbol
     viewBox="0 -16 16 16"
     id="Symbol_1"><path
       id="path5"
       d="M13.6-13.65C12.033-15.217,10.167-16,8-16   c-2.2,0-4.083,0.783-5.65,2.35C0.783-12.083,0-10.2,0-8c0,2.167,0.783,4.05,2.35,5.65C3.917-0.783,5.8,0,8,0   c2.167,0,4.033-0.783,5.6-2.35C15.2-3.95,16-5.833,16-8C16-10.2,15.2-12.083,13.6-13.65z"
       fill="#EFF0F1"
       clip-rule="evenodd"
       fill-rule="evenodd" /></symbol><symbol
     viewBox="0 -13.05 13.05 13.05"
     id="Symbol_2"><path
       id="path8"
       d="M10.2-0.95l1.85-1.85v-0.05l-1-1c0.233-0.4,0.417-0.85,0.55-1.35   h1.45v-2.6L13-7.85h-1.45C11.417-8.283,11.233-8.7,11-9.1l1.05-1.05v-0.05l-1.85-1.85h-0.05L9.1-11c-0.4-0.2-0.817-0.367-1.25-0.5   V-13L7.8-13.05H5.2v1.55c-0.467,0.133-0.883,0.3-1.25,0.5l-1.1-1.05H2.8L0.95-10.2v0.05L2-9.1C1.767-8.7,1.6-8.283,1.5-7.85H0v2.65   h1.45c0.1,0.5,0.267,0.95,0.5,1.35l-1,1v0.05L2.8-0.95h0.05l1-1c0.4,0.267,0.85,0.467,1.35,0.6V0h2.65v-1.35   c0.467-0.133,0.917-0.333,1.35-0.6l0.95,1H10.2z M5.25-5.25C5.083-5.417,4.95-5.6,4.85-5.8c-0.1-0.233-0.133-0.467-0.1-0.7   c0-0.5,0.167-0.917,0.5-1.25S6-8.267,6.5-8.3c0.233,0,0.467,0.05,0.7,0.15c0.2,0.1,0.383,0.233,0.55,0.4s0.3,0.35,0.4,0.55   C8.25-7,8.3-6.767,8.3-6.5c0,0.233-0.05,0.467-0.15,0.7c-0.1,0.2-0.233,0.383-0.4,0.55S7.4-4.95,7.2-4.85   C7-4.75,6.767-4.717,6.5-4.75c-0.233,0.033-0.467,0-0.7-0.1C5.6-4.95,5.417-5.083,5.25-5.25z"
       fill="#FDBC4D"
       clip-rule="evenodd"
       fill-rule="evenodd" /></symbol><g
     id="Layer_1" /><g
     id="Layer_2"><rect
       id="rect12"
       height="243.784"
       width="243.784"
       fill="#FCFCFC"
       clip-rule="evenodd"
       fill-rule="evenodd"
       y="6.398"
       x="6.398" /></g><g
     id="Layer_4"><linearGradient
       y2="100.3512"
       x2="177.4508"
       y1="138.4512"
       x1="215.5508"
       gradientUnits="userSpaceOnUse"
       id="SVGID_1_"><stop
         id="stop16"
         style="stop-color:#FCFCFC"
         offset="0" /><stop
         id="stop18"
         style="stop-color:#EFF0F1"
         offset="1" /></linearGradient><path
       id="path20"
       d="M188.475,94.825L237.95,30.85l12.25,12.2v144.9   l-14.55-14.55L221.1,187.35l17.45-4.1l11.65,12.25v54.7h-52.4l-15.7-15.15l2.351-13.399l-4.101,4.1L63.975,109.375V108.3   c0.001-0.129,0.001-0.254,0-0.375c0.001-0.156,0.001-0.314,0-0.475c0.002-0.654,0.002-1.304,0-1.95L64,28.5h35.325L133.8,64h23.851   l25.225,25.175c1.116,1.122,2.232,2.247,3.35,3.375L188.475,94.825z"
       fill="url(#SVGID_1_)"
       clip-rule="evenodd"
       fill-rule="evenodd" /></g><g
     id="Layer_3"><g
       id="Layer_5"><rect
         id="rect24"
         height="13.477"
         width="80.864"
         fill="#4D4D4D"
         clip-rule="evenodd"
         fill-rule="evenodd"
         y="15.15"
         x="18.05" /><rect
         id="rect26"
         height="87.602"
         width="13.477"
         fill="#4D4D4D"
         clip-rule="evenodd"
         fill-rule="evenodd"
         y="23.85"
         x="50.05" /><polygon
         id="polygon28"
         points="156.387,49.714 156.722,50.05 156.722,63.527     156.387,63.863 102.813,63.863 102.813,90.146 156.387,90.146 156.722,103.959 156.387,104.294 102.813,104.294 102.813,130.578     156.387,130.578 156.722,130.913 156.722,144.391 89,144.727 88.665,144.391 88.665,130.913 88.665,97.22 88.665,83.743     88.665,63.527 88.665,50.05 89,49.714   "
         fill="#4D4D4D"
         clip-rule="evenodd"
         fill-rule="evenodd" /><rect
         id="rect30"
         height="13.469"
         width="110.448"
         fill="#4D4D4D"
         clip-rule="evenodd"
         fill-rule="evenodd"
         transform="matrix(-0.6092 -0.793 0.793 -0.6092 269.802 260.0513)"
         y="56.808"
         x="143.757" /><rect
         id="rect32"
         height="110.467"
         width="13.471"
         fill="#4D4D4D"
         clip-rule="evenodd"
         fill-rule="evenodd"
         transform="matrix(-0.7934 -0.6087 0.6087 -0.7934 314.0825 247.0388)"
         y="14.99"
         x="192.225" /></g><circle
       style="opacity:1;fill:#eff0f1;fill-opacity:1;stroke:none;stroke-opacity:0.4"
       id="path4162"
       cx="193.7455"
       cy="189.6965"
       r="46.545502" /><path
       inkscape:connector-curvature="0"
       id="path334"
       style="display:inline;fill:#fdbc4d;fill-opacity:1;fill-rule:nonzero;stroke:none"
       d="m 193.914,200.443 c -5.87227,0 -10.62992,-4.753 -10.62992,-10.63 0,-5.877 4.75765,-10.63 10.62992,-10.63 5.87379,0 10.62992,4.753 10.62992,10.63 0,5.877 -4.75613,10.63 -10.62992,10.63 z m 37.964,-3.037 0,-15.186 -8.45838,0 c -0.68183,-2.839 -1.75394,-5.527 -3.17379,-8.003 l 5.88138,-5.876 -10.73622,-10.737 -5.75989,5.756 c -2.49804,-1.519 -5.22233,-2.673 -8.1243,-3.417 l 0,-8.094 -15.1856,0 0,8.094 c -2.90045,0.744 -5.62626,1.898 -8.12278,3.417 l -5.7599,-5.756 -10.73622,10.737 5.88139,5.876 c -1.41986,2.476 -2.49196,5.164 -3.17379,8.003 l -8.4599,0 0,15.186 8.71805,0 c 0.75017,2.718 1.86479,5.269 3.29376,7.623 l -6.25951,6.256 10.73622,10.737 6.38251,-6.378 c 2.32492,1.336 4.84117,2.353 7.50017,3.052 l 0,9.081 15.1856,0 0,-9.081 c 2.659,-0.699 5.17677,-1.716 7.50169,-3.052 l 6.3825,6.378 10.73622,-10.737 -6.2595,-6.256 c 1.42896,-2.354 2.54358,-4.905 3.29375,-7.623 l 8.71654,0" /></g></svg>