<?xml version="1.0" encoding="UTF-8" standalone="no"?>
<svg
   xmlns:dc="http://purl.org/dc/elements/1.1/"
   xmlns:cc="http://creativecommons.org/ns#"
   xmlns:rdf="http://www.w3.org/1999/02/22-rdf-syntax-ns#"
   xmlns:svg="http://www.w3.org/2000/svg"
   xmlns="http://www.w3.org/2000/svg"
   xmlns:sodipodi="http://sodipodi.sourceforge.net/DTD/sodipodi-0.dtd"
   xmlns:inkscape="http://www.inkscape.org/namespaces/inkscape"
   id="svg2"
   xml:space="preserve"
   enable-background="new 0 0 256 256"
   viewBox="0 0 256 256"
   height="256px"
   width="256px"
   y="0px"
   x="0px"
   version="1.1"
   inkscape:version="0.91 r13725"
   sodipodi:docname="texmaker.svg"
   inkscape:export-filename="/home/gustawho/Proyectos/texmaker-breeze/utilities/texmaker128x128.png"
   inkscape:export-xdpi="45"
   inkscape:export-ydpi="45"><title
     id="title4153">Texmaker icon</title><sodipodi:namedview
     pagecolor="#ffffff"
     bordercolor="#666666"
     borderopacity="1"
     objecttolerance="10"
     gridtolerance="10"
     guidetolerance="10"
     inkscape:pageopacity="0"
     inkscape:pageshadow="2"
     inkscape:window-width="1366"
     inkscape:window-height="713"
     id="namedview26"
     showgrid="false"
     inkscape:zoom="1.8437501"
     inkscape:cx="213.96087"
     inkscape:cy="144.11412"
     inkscape:window-x="0"
     inkscape:window-y="0"
     inkscape:window-maximized="1"
     inkscape:current-layer="Layer_3"><inkscape:grid
       type="xygrid"
       id="grid4154" /></sodipodi:namedview><metadata
     id="metadata42"><rdf:RDF><cc:Work
         rdf:about=""><dc:format>image/svg+xml</dc:format><dc:type
           rdf:resource="http://purl.org/dc/dcmitype/StillImage" /><dc:title>Texmaker icon</dc:title><dc:date>29/08/15</dc:date><dc:creator><cc:Agent><dc:title>gustawho</dc:title></cc:Agent></dc:creator><dc:rights><cc:Agent><dc:title>CC-BY-SA</dc:title></cc:Agent></dc:rights><dc:publisher><cc:Agent><dc:title>Inkscape</dc:title></cc:Agent></dc:publisher><dc:subject><rdf:Bag><rdf:li>breeze</rdf:li><rdf:li>kde</rdf:li><rdf:li>plasma</rdf:li><rdf:li>latex</rdf:li><rdf:li>texmaker</rdf:li></rdf:Bag></dc:subject><dc:description>https://github.com/gustawho/texmaker-breeze</dc:description><cc:license
           rdf:resource="http://creativecommons.org/licenses/by-sa/3.0/" /></cc:Work><cc:License
         rdf:about="http://creativecommons.org/licenses/by-sa/3.0/"><cc:permits
           rdf:resource="http://creativecommons.org/ns#Reproduction" /><cc:permits
           rdf:resource="http://creativecommons.org/ns#Distribution" /><cc:requires
           rdf:resource="http://creativecommons.org/ns#Notice" /><cc:requires
           rdf:resource="http://creativecommons.org/ns#Attribution" /><cc:permits
           rdf:resource="http://creativecommons.org/ns#DerivativeWorks" /><cc:requires
           rdf:resource="http://creativecommons.org/ns#ShareAlike" /></cc:License></rdf:RDF></metadata><defs
     id="defs40" /><symbol
     viewBox="0 -16 16 16"
     id="Symbol_1"><path
       id="path5"
       d="M13.6-13.65C12.033-15.217,10.167-16,8-16   c-2.2,0-4.083,0.783-5.65,2.35C0.783-12.083,0-10.2,0-8c0,2.167,0.783,4.05,2.35,5.65C3.917-0.783,5.8,0,8,0   c2.167,0,4.033-0.783,5.6-2.35C15.2-3.95,16-5.833,16-8C16-10.2,15.2-12.083,13.6-13.65z"
       fill="#EFF0F1"
       clip-rule="evenodd"
       fill-rule="evenodd" /></symbol><symbol
     viewBox="0 -13.05 13.05 13.05"
     id="Symbol_2"><path
       id="path8"
       d="M10.2-0.95l1.85-1.85v-0.05l-1-1c0.233-0.4,0.417-0.85,0.55-1.35   h1.45v-2.6L13-7.85h-1.45C11.417-8.283,11.233-8.7,11-9.1l1.05-1.05v-0.05l-1.85-1.85h-0.05L9.1-11c-0.4-0.2-0.817-0.367-1.25-0.5   V-13L7.8-13.05H5.2v1.55c-0.467,0.133-0.883,0.3-1.25,0.5l-1.1-1.05H2.8L0.95-10.2v0.05L2-9.1C1.767-8.7,1.6-8.283,1.5-7.85H0v2.65   h1.45c0.1,0.5,0.267,0.95,0.5,1.35l-1,1v0.05L2.8-0.95h0.05l1-1c0.4,0.267,0.85,0.467,1.35,0.6V0h2.65v-1.35   c0.467-0.133,0.917-0.333,1.35-0.6l0.95,1H10.2z M5.25-5.25C5.083-5.417,4.95-5.6,4.85-5.8c-0.1-0.233-0.133-0.467-0.1-0.7   c0-0.5,0.167-0.917,0.5-1.25S6-8.267,6.5-8.3c0.233,0,0.467,0.05,0.7,0.15c0.2,0.1,0.383,0.233,0.55,0.4s0.3,0.35,0.4,0.55   C8.25-7,8.3-6.767,8.3-6.5c0,0.233-0.05,0.467-0.15,0.7c-0.1,0.2-0.233,0.383-0.4,0.55S7.4-4.95,7.2-4.85   C7-4.75,6.767-4.717,6.5-4.75c-0.233,0.033-0.467,0-0.7-0.1C5.6-4.95,5.417-5.083,5.25-5.25z"
       fill="#FDBC4D"
       clip-rule="evenodd"
       fill-rule="evenodd" /></symbol><g
     id="Layer_1" /><g
     id="Layer_3"><g
       id="g4173"
       transform="translate(8.9204269e-7,-2.6765946)"><g
         style="fill:#eff0f1;fill-opacity:1"
         transform="matrix(0.89004379,0,0,0.91206827,13.808271,13.667358)"
         id="Layer_2"><rect
           style="clip-rule:evenodd;fill:#eff0f1;fill-opacity:1;fill-rule:evenodd"
           x="6.3979998"
           y="6.3979998"
           width="243.784"
           height="243.784"
           id="rect12" /></g><g
         transform="matrix(0.89004379,0,0,0.89004379,13.816284,13.816284)"
         id="Layer_2-6"><rect
           style="clip-rule:evenodd;fill:#fcfcfc;fill-rule:evenodd"
           x="6.3979998"
           y="6.3979998"
           width="243.784"
           height="243.784"
           id="rect12-5" /></g><g
         transform="matrix(0.89004379,0,0,0.89004379,13.808271,13.808271)"
         id="Layer_4"><linearGradient
           id="SVGID_1_"
           gradientUnits="userSpaceOnUse"
           x1="215.5508"
           y1="138.4512"
           x2="177.45081"
           y2="100.3512"><stop
             offset="0"
             style="stop-color:#FCFCFC"
             id="stop16" /><stop
             offset="1"
             style="stop-color:#EFF0F1"
             id="stop18" /></linearGradient><path
           inkscape:connector-curvature="0"
           style="clip-rule:evenodd;fill:url(#SVGID_1_);fill-rule:evenodd"
           d="m 188.475,94.825 49.475,-63.975 12.25,12.2 0,144.9 -14.55,-14.55 -14.55,13.95 17.45,-4.1 11.65,12.25 0,54.7 -52.4,0 -15.7,-15.15 2.351,-13.399 -4.101,4.1 -116.375,-116.376 0,-1.075 c 10e-4,-0.129 10e-4,-0.254 0,-0.375 10e-4,-0.156 10e-4,-0.314 0,-0.475 0.002,-0.654 0.002,-1.304 0,-1.95 l 0.025,-77 35.325,0 34.475,35.5 23.851,0 25.225,25.175 c 1.116,1.122 2.232,2.247 3.35,3.375 l 2.249,2.275 z"
           id="path20" /></g><g
         transform="matrix(0.89004379,0,0,0.89004379,13.808271,13.808271)"
         id="Layer_5"><rect
           style="clip-rule:evenodd;fill:#4d4d4d;fill-rule:evenodd"
           x="18.049999"
           y="15.15"
           width="80.863998"
           height="13.477"
           id="rect24" /><rect
           style="clip-rule:evenodd;fill:#4d4d4d;fill-rule:evenodd"
           x="50.049999"
           y="23.85"
           width="13.477"
           height="87.601997"
           id="rect26" /><polygon
           style="clip-rule:evenodd;fill:#4d4d4d;fill-rule:evenodd"
           points="102.813,130.578 156.387,130.578 156.722,130.913 156.722,144.391 89,144.727 88.665,144.391 88.665,130.913 88.665,97.22 88.665,83.743 88.665,63.527 88.665,50.05 89,49.714 156.387,49.714 156.722,50.05 156.722,63.527 156.387,63.863 102.813,63.863 102.813,90.146 156.387,90.146 156.722,103.959 156.387,104.294 102.813,104.294 "
           id="polygon28" /><rect
           style="clip-rule:evenodd;fill:#4d4d4d;fill-rule:evenodd"
           x="143.757"
           y="56.807999"
           transform="matrix(-0.6092,-0.793,0.793,-0.6092,269.802,260.0513)"
           width="110.448"
           height="13.469"
           id="rect30" /><rect
           style="clip-rule:evenodd;fill:#4d4d4d;fill-rule:evenodd"
           x="192.22501"
           y="14.99"
           transform="matrix(-0.7934,-0.6087,0.6087,-0.7934,314.0825,247.0388)"
           width="13.471"
           height="110.467"
           id="rect32" /></g><circle
         r="41.427536"
         cy="182.64647"
         cx="186.25026"
         id="path4162"
         style="opacity:1;fill:#eff0f1;fill-opacity:1;stroke:none;stroke-opacity:0.4" /><path
         d="m 186.40023,192.21132 c -5.22658,0 -9.4611,-4.23038 -9.4611,-9.46116 0,-5.23079 4.23452,-9.46117 9.4611,-9.46117 5.22793,0 9.46109,4.23038 9.46109,9.46117 0,5.23078 -4.23316,9.46116 -9.46109,9.46116 z m 33.78962,-2.70306 0,-13.51621 -7.52833,0 c -0.60686,-2.52683 -1.56109,-4.91927 -2.82482,-7.12301 l 5.23469,-5.22991 -9.55571,-9.5564 -5.12655,5.1231 c -2.22336,-1.35198 -4.6481,-2.37909 -7.23098,-3.04128 l 0,-7.20402 -13.51585,0 0,7.20402 c -2.58153,0.66219 -5.00762,1.6893 -7.22963,3.04128 l -5.12657,-5.1231 -9.5557,9.5564 5.23469,5.22991 c -1.26373,2.20374 -2.21795,4.59618 -2.82481,7.12301 l -7.52968,0 0,13.51621 7.75945,0 c 0.66769,2.41914 1.65974,4.68963 2.93159,6.78481 l -5.57124,5.5681 9.5557,9.5564 5.68072,-5.6767 c 2.06928,1.18911 4.30885,2.09428 6.67548,2.71642 l 0,8.08249 13.51585,0 0,-8.08249 c 2.36663,-0.62214 4.60755,-1.52731 6.67684,-2.71642 l 5.68069,5.6767 9.55571,-9.5564 -5.57123,-5.5681 c 1.27184,-2.09518 2.2639,-4.36567 2.93159,-6.78481 l 7.7581,0"
         style="display:inline;fill:#fdbc4d;fill-opacity:1;fill-rule:nonzero;stroke:none"
         id="path334"
         inkscape:connector-curvature="0" /></g></g></svg>